<?xml version="1.0" encoding="UTF-8" standalone="no"?>
<svg
   xmlns:dc="http://purl.org/dc/elements/1.1/"
   xmlns:cc="http://creativecommons.org/ns#"
   xmlns:rdf="http://www.w3.org/1999/02/22-rdf-syntax-ns#"
   xmlns:svg="http://www.w3.org/2000/svg"
   xmlns="http://www.w3.org/2000/svg"
   xmlns:sodipodi="http://sodipodi.sourceforge.net/DTD/sodipodi-0.dtd"
   xmlns:inkscape="http://www.inkscape.org/namespaces/inkscape"
   id="Layer_1"
   enable-background="new 0 0 128 128"
   height="1000"
   viewBox="0 0 250 250"
   width="1000"
   version="1.1"
   sodipodi:docname="PostDroidIcon.svg"
   inkscape:version="0.92.4 (5da689c313, 2019-01-14)"
   inkscape:export-filename="C:\Users\ahmed\Downloads\PostDroidIcon.png"
   inkscape:export-xdpi="49.201202"
   inkscape:export-ydpi="49.201202">
  <metadata
     id="metadata4039">
    <rdf:RDF>
      <cc:Work
         rdf:about="">
        <dc:format>image/svg+xml</dc:format>
        <dc:type
           rdf:resource="http://purl.org/dc/dcmitype/StillImage" />
        <dc:title></dc:title>
      </cc:Work>
    </rdf:RDF>
  </metadata>
  <defs
     id="defs4037" />
  <sodipodi:namedview
     pagecolor="#ffffff"
     bordercolor="#666666"
     borderopacity="1"
     objecttolerance="10"
     gridtolerance="10"
     guidetolerance="10"
     inkscape:pageopacity="0"
     inkscape:pageshadow="2"
     inkscape:window-width="1920"
     inkscape:window-height="1017"
     id="namedview4035"
     showgrid="false"
     inkscape:zoom="0.65186406"
     inkscape:cx="325.54803"
     inkscape:cy="544.38288"
     inkscape:window-x="-8"
     inkscape:window-y="-8"
     inkscape:window-maximized="1"
     inkscape:current-layer="Layer_1" />
  <circle
     style="fill:#84dbff;stroke-width:0.48779294"
     cx="124.875"
     cy="125.125"
     id="circle111"
     r="124.875" />
  <path
     d="m 147.39148,161.38442 c 14.85223,-6.43349 25.9119,-19.70082 29.36342,-35.83315 0.77762,0.2949 1.57665,0.44482 2.39217,0.44482 4.95239,0 8.98053,-5.38403 8.98053,-12.0004 0,-4.62783 -1.97371,-8.64443 -4.85189,-10.64615 V 81.478962 c 0,-28.114612 -22.7833,-52.545407 -50.89791,-52.545407 h -9.56703 v 0.03625 l -3.77937,-0.03625 c -28.114607,0 -50.897907,24.432442 -50.897907,52.545407 v 24.709228 c -1.35095,2.10056 -2.1747,4.82553 -2.1747,7.8075 0,6.61802 4.02814,12.0004 8.98053,12.0004 0.81222,0 1.61784,-0.18122 2.40535,-0.4893 3.43669,15.87367 14.30526,29.00591 28.765377,35.5679 0.003,0.13345 0.0148,0.26525 0.0198,0.3987 -0.30973,0.0362 -0.61782,0.0741 -0.92755,0.11532 -0.26195,0.0346 -0.52555,0.061 -0.7875,0.0972 -0.67383,0.0972 -1.34272,0.21417 -2.0149,0.33279 -0.61781,0.10709 -1.23398,0.22241 -1.84685,0.34762 -0.29819,0.061 -0.599691,0.1038 -0.897881,0.1697 -0.0428,0.01 -0.0758,0.0362 -0.11698,0.0494 -5.578436,1.23068 -10.939406,3.17144 -16.002176,5.8371 -18.71891,9.8537 -31.496929,28.22499 -34.179061,49.14166 -0.06096,0.46954 0.08402,0.94237 0.397048,1.29659 0.313025,0.35586 0.762793,0.56015 1.237273,0.56015 l 152.120377,-0.003 c 0.47448,0 0.92425,-0.20429 1.23563,-0.56015 0.31302,-0.35421 0.458,-0.82704 0.39704,-1.29658 -3.82549,-29.8659 -27.68461,-52.98858 -57.35281,-56.1765 z"
     id="path3978"
     inkscape:connector-curvature="0"
     style="fill:#e6e7e8;stroke-width:1.64750123" />
  <path
     d="m 71.243973,108.14542 v -7.46318 c 0,-0.907778 0.056,-1.810608 0.0939,-2.715086 -0.91436,-0.578273 -1.92099,-0.916011 -2.98857,-0.916011 -4.04956,0 -7.33303,4.636067 -7.33303,10.352897 0,5.71848 3.28347,10.3529 7.33303,10.3529 1.31306,0 2.52727,-0.5272 3.5932,-1.38061 -0.45141,-2.67719 -0.69854,-5.42522 -0.69854,-8.23091 z"
     id="path3980"
     inkscape:connector-curvature="0"
     style="fill:#ffffff;stroke-width:1.64750123" />
  <path
     d="m 101.29934,156.34472 c -8.450027,0.77103 -16.427237,3.17473 -23.583977,6.94257 -17.8375,9.39075 -30.638582,27.05691 -33.312477,47.89286 h 77.872444 v -37.95843 c -0.60134,0.056 -1.20762,0.0923 -1.82214,0.0923 -9.87018,0 -17.9973,-7.41046 -19.15385,-16.96926 z"
     id="path3982"
     inkscape:connector-curvature="0"
     style="fill:#ffffff;stroke-width:1.64750123" />
  <path
     d="m 122.27533,181.65033 c -0.60464,0.0395 -1.20762,0.0857 -1.82214,0.0857 -12.32331,0 -22.717387,-8.19961 -26.061817,-19.43721 -5.89641,1.20267 -11.50121,3.20439 -16.67272,5.931 -16.40911,8.63291 -28.567668,24.28417 -32.472246,42.95036 h 77.037153 z"
     id="path3984"
     inkscape:connector-curvature="0"
     style="fill:#fa759e;stroke-width:1.64750123" />
  <path
     d="m 120.45319,173.31398 c -9.87842,0 -18.00883,-7.42199 -19.15714,-16.98903 -2.677187,0.24383 -5.303307,0.659 -7.873407,1.22739 1.50582,13.60176 13.026787,24.18531 27.030547,24.18531 0.61452,0 1.2175,-0.0461 1.82214,-0.0857 v -8.42038 c -0.59969,0.0527 -1.20762,0.0824 -1.82214,0.0824 z"
     id="path3986"
     inkscape:connector-curvature="0"
     style="fill:#6dc9f7;stroke-width:1.64750123" />
  <path
     d="m 120.45319,157.35464 c -6.85525,0 -13.381,-1.40532 -19.31036,-3.93753 v 0.58651 c 0,10.66427 8.64609,19.31036 19.31036,19.31036 0.61452,0 1.22245,-0.0362 1.82214,-0.0923 v -15.91321 c -0.60464,0.0214 -1.21092,0.0461 -1.82214,0.0461 z"
     id="path3988"
     inkscape:connector-curvature="0"
     style="fill:#ffffff;stroke-width:1.64750123" />
  <path
     d="m 101.96493,64.76671 c 0,0 -4.540507,8.794361 -12.544077,13.552345 -7.1205,4.209365 -14.55732,5.858514 -16.14057,6.176482 -0.20593,0.818808 -0.4267,1.634321 -0.59969,2.459719 -0.47118,4.031435 -1.36907,11.674193 -1.34271,11.011898 -0.0363,0.904478 -0.0939,1.807308 -0.0939,2.715086 v 7.46318 c 0,27.17718 22.03204,49.20922 49.209217,49.20922 0.61122,0 1.2175,-0.0231 1.82214,-0.0461 V 78.734225 C 109.07721,72.495138 101.96494,64.76671 101.96494,64.76671 Z"
     id="path3990"
     inkscape:connector-curvature="0"
     style="fill:#ffffff;stroke-width:1.64750123" />
  <path
     d="m 140.80148,154.79442 c 14.85222,-6.43349 25.9119,-19.70082 29.36341,-35.83316 0.77762,0.29491 1.57666,0.44483 2.39217,0.44483 4.95239,0 8.98053,-5.38404 8.98053,-12.0004 0,-4.62783 -1.9737,-8.644441 -4.85189,-10.646155 V 74.888957 c 0,-28.114612 -22.78329,-52.545407 -50.8979,-52.545407 h -9.56704 v 0.03625 l -3.77937,-0.03625 c -28.114607,0 -50.897897,24.432442 -50.897897,52.545407 V 99.59818 c -1.35096,2.10057 -2.17471,4.82553 -2.17471,7.80751 0,6.61801 4.02814,12.0004 8.98053,12.0004 0.81222,0 1.61785,-0.18123 2.40535,-0.48931 3.43669,15.87368 14.30526,29.00591 28.765376,35.56791 0.003,0.13345 0.0148,0.26525 0.0198,0.39869 -0.30973,0.0362 -0.61781,0.0741 -0.927536,0.11533 -0.26195,0.0346 -0.52555,0.061 -0.78751,0.0972 -0.67383,0.0972 -1.34271,0.21418 -2.01489,0.3328 -0.61781,0.10708 -1.23398,0.22241 -1.84685,0.34762 -0.2982,0.061 -0.59969,0.10379 -0.89789,0.16969 -0.0428,0.01 -0.0758,0.0362 -0.11697,0.0494 -5.57845,1.23068 -10.93942,3.17144 -16.00219,5.83709 -18.7189,9.85371 -31.496924,28.22499 -34.179055,49.14167 -0.06096,0.46954 0.08402,0.94237 0.397047,1.29658 0.313026,0.35586 0.762793,0.56015 1.237274,0.56015 h 30.127854 c 0.90942,0 1.6475,-0.73643 1.6475,-1.6475 0,-0.91107 -0.73808,-1.6475 -1.6475,-1.6475 h -28.22502 c 3.044582,-19.07806 14.96425,-35.72606 32.17899,-44.78897 4.31975,-2.27355 8.87015,-3.99684 13.59354,-5.1715 2.40865,13.69238 14.278887,23.80968 28.376557,23.80968 0.0593,0 0.11697,-0.007 0.17464,-0.008 v 26.15902 h -20.15059 c -0.909421,0 -1.647497,0.73643 -1.647497,1.6475 0,0.91107 0.738076,1.6475 1.647497,1.6475 h 21.79809 c 0.005,0 0.01,-0.003 0.0165,-0.003 h 74.23146 c 0.47448,0 0.92425,-0.20429 1.23563,-0.56015 0.31302,-0.35422 0.458,-0.82705 0.39705,-1.29659 -3.82715,-29.8659 -27.68626,-52.98858 -57.35446,-56.17649 z M 62.663793,107.40404 c 0,-4.71844 2.6047,-8.705396 5.68552,-8.705396 0.43165,0 0.86494,0.08402 1.29494,0.247125 -0.0264,0.578273 -0.0478,1.154901 -0.0478,1.734821 v 7.46318 c 0,1.15819 0.0527,2.30321 0.13015,3.44328 0.0132,0.19111 0.028,0.38222 0.0445,0.57333 0.0906,1.15984 0.21088,2.3098 0.37892,3.44657 -3.67393,2.0462 -7.48624,-2.56516 -7.48624,-8.20291 z m 57.964037,72.68282 c -0.0593,0.002 -0.11698,0.002 -0.17464,0.002 -12.53748,0 -23.107847,-9.02336 -25.182047,-21.22475 0.1944,-0.0379 0.39045,-0.0692 0.58651,-0.1038 1.03463,-0.19111 2.0742,-0.34762 3.112126,-0.48601 0.31302,-0.0412 0.62934,-0.0725 0.94401,-0.10873 0.0956,0.47612 0.227361,0.93742 0.354221,1.40037 0.0362,0.13345 0.0643,0.27019 0.10379,0.40199 0.11203,0.37728 0.24548,0.74138 0.37728,1.10877 0.0906,0.25372 0.17793,0.50908 0.27678,0.7562 0.12356,0.30644 0.26195,0.60628 0.40034,0.90613 0.13674,0.2982 0.27678,0.59639 0.42835,0.88635 0.13345,0.25701 0.27349,0.51073 0.41847,0.7628 0.18452,0.32291 0.37727,0.63758 0.57662,0.94896 0.13839,0.21582 0.27843,0.42835 0.42506,0.63758 0.23724,0.34103 0.48766,0.66889 0.74467,0.99509 0.13344,0.16969 0.2636,0.34103 0.40199,0.50743 0.30973,0.36739 0.63429,0.71831 0.96708,1.06429 0.10709,0.11203 0.20923,0.229 0.31797,0.33774 0.91107,0.90447 1.90286,1.72328 2.9655,2.44818 0.14333,0.0972 0.2949,0.18288 0.43988,0.27678 0.38552,0.24878 0.77433,0.49261 1.17632,0.71502 0.20923,0.11697 0.4267,0.22241 0.64088,0.33115 0.35256,0.18122 0.70842,0.35586 1.07087,0.51731 0.24219,0.10709 0.48766,0.20594 0.73314,0.30479 0.35257,0.14004 0.70843,0.27184 1.07088,0.3921 0.25865,0.0857 0.51566,0.1697 0.77926,0.24713 0.37234,0.10873 0.75126,0.20264 1.13184,0.29161 0.25701,0.0593 0.51072,0.12191 0.77103,0.17134 0.42505,0.0824 0.8567,0.14168 1.28834,0.1977 0.22406,0.028 0.44318,0.0675 0.66889,0.089 0.6623,0.0643 1.33283,0.10215 2.00995,0.10215 h 0.17464 z m 0,-8.42862 c -0.028,0 -0.056,0.003 -0.084,0.003 -0.19111,0.002 -0.37892,-0.0148 -0.56838,-0.0181 -8.71364,-0.23559 -16.00054,-6.81736 -17.04505,-15.51616 0,-0.007 -0.005,-0.0132 -0.007,-0.0198 -0.008,-0.0758 -0.0264,-0.14828 -0.0346,-0.22406 5.61633,2.07091 11.51274,3.12036 17.56401,3.12036 h 0.17464 z m 0,-50.15982 c -0.0593,0.002 -0.11533,0.0132 -0.17464,0.0132 -2.178,0 -3.94906,-1.77107 -3.94906,-3.94742 v -3.28017 c 0,-0.91107 -0.73808,-1.6475 -1.6475,-1.6475 -0.90942,0 -1.6475,0.73643 -1.6475,1.6475 v 3.28017 c 0,3.99355 3.25052,7.24242 7.24406,7.24242 0.0593,0 0.11533,-0.0132 0.17464,-0.0132 v 12.74672 c -0.17134,-0.061 -0.35092,-0.11038 -0.54368,-0.11038 -4.2176,0 -6.35935,-2.78099 -6.46809,-2.92761 -0.53379,-0.72985 -1.55853,-0.8946 -2.29497,-0.36411 -0.73808,0.5305 -0.90448,1.56019 -0.37233,2.29992 0.12685,0.17464 3.16155,4.28845 9.13539,4.28845 0.19276,0 0.37234,-0.0494 0.54368,-0.11039 v 15.09111 c -0.0593,0 -0.11698,0 -0.17464,0 -26.224917,0 -47.561717,-21.33678 -47.561717,-47.56336 v -5.25388 l 4.57017,-1.15325 v 0.83034 c 0,7.52908 6.12541,13.65614 13.65615,13.65614 h 11.509437 c 7.52908,0 13.65614,-6.12706 13.65614,-13.65614 v -4.576761 l 4.3461,-0.0099 V 121.49842 Z M 80.756643,102.56863 v -7.057901 c 0,-4.794228 3.90129,-8.695511 8.69552,-8.695511 h 18.094507 c 3.0001,0 5.44005,2.439949 5.44005,5.441697 v 10.313355 c 0,5.71354 -4.6476,10.36114 -10.36114,10.36114 H 91.116143 c -5.7119,-0.002 -10.3595,-4.64925 -10.3595,-10.36278 z m 39.871187,-7.881651 -4.34611,0.0099 v -2.441597 c 0,-4.817293 -3.91776,-8.736699 -8.73505,-8.736699 H 89.452163 c -6.61143,0 -11.99052,5.379092 -11.99052,11.990514 v 2.828759 l -4.53063,1.143366 c 0.0988,-5.222579 0.81881,-10.387495 2.1434,-15.395898 3.00669,-0.747966 8.77459,-2.4729 14.34809,-5.767902 8.00357,-4.757983 12.544077,-13.552344 12.544077,-13.552344 0,0 6.5307,7.077665 18.66289,13.155296 v 16.76662 z"
     id="path3992"
     inkscape:connector-curvature="0"
     style="fill:#3a2c60;stroke-width:1.64750123" />
  <path
     d="m 93.537963,209.53429 h -11.73845 c -0.90942,0 -1.6475,0.73644 -1.6475,1.6475 0,0.91107 0.73808,1.6475 1.6475,1.6475 h 11.73845 c 0.90943,0 1.64751,-0.73643 1.64751,-1.6475 0,-0.91106 -0.73808,-1.6475 -1.64751,-1.6475 z"
     id="path3994"
     inkscape:connector-curvature="0"
     style="fill:#3a2c60;stroke-width:1.64750123" />
  <circle
     cx="98.744049"
     cy="101.25722"
     id="circle3996"
     style="fill:#3a2c60;stroke-width:1.64750123"
     r="4.9210858" />
  <path
     d="m 92.475333,92.907677 c 0.0939,0 0.18946,-0.0082 0.28337,-0.02471 l 9.636227,-1.678804 c 0.89624,-0.156512 1.49758,-1.009918 1.34107,-1.906159 -0.15652,-0.894593 -1.01157,-1.482751 -1.90616,-1.339418 l -9.636237,1.678804 c -0.89624,0.156512 -1.49757,1.009918 -1.34106,1.906159 0.14168,0.800685 0.83693,1.36413 1.62279,1.36413 z"
     id="path3998"
     inkscape:connector-curvature="0"
     style="fill:#3a2c60;stroke-width:1.64750123" />
  <g
     id="g4014"
     style="fill:#0089ef"
     transform="matrix(1.6475012,0,0,1.6475012,18.318,15.44052)">
    <path
       d="m 97.973,109.569 v -6.589 c 0,-3.086 -2.51,-5.596 -5.596,-5.596 h -4.34 c -1.983,0 -3.596,-1.613 -3.596,-3.596 v -4.583 c -0.657,-0.273 -1.325,-0.525 -2,-0.761 v 5.345 c 0,3.086 2.51,5.596 5.596,5.596 h 4.34 c 1.983,0 3.596,1.613 3.596,3.596 v 6.589 c -1.048,0.403 -1.795,1.413 -1.795,2.603 0,1.544 1.251,2.795 2.795,2.795 1.544,0 2.795,-1.251 2.795,-2.795 0,-1.191 -0.747,-2.2 -1.795,-2.604 z"
       id="path4000"
       inkscape:connector-curvature="0" />
    <path
       d="m 77.058,96.329 c 1.544,0 2.795,-1.251 2.795,-2.795 0,-1.19 -0.747,-2.199 -1.795,-2.603 V 87.21 c -0.661,-0.143 -1.327,-0.27 -2,-0.378 v 4.099 c -1.048,0.403 -1.795,1.413 -1.795,2.603 0,1.543 1.251,2.795 2.795,2.795 z"
       id="path4002"
       inkscape:connector-curvature="0" />
    <path
       d="m 89.432,113.014 0.322,-2.034 c 0.022,-0.139 -0.073,-0.27 -0.212,-0.292 l -0.575,-0.091 c -0.11,-0.017 -0.198,-0.104 -0.213,-0.215 -0.047,-0.358 -0.131,-0.707 -0.25,-1.041 -0.037,-0.105 0.002,-0.222 0.092,-0.288 l 0.471,-0.342 c 0.114,-0.083 0.139,-0.243 0.056,-0.357 l -1.21,-1.666 c -0.083,-0.114 -0.243,-0.139 -0.357,-0.056 l -0.471,0.342 c -0.09,0.066 -0.214,0.066 -0.302,-0.002 -0.281,-0.216 -0.587,-0.404 -0.913,-0.559 -0.101,-0.048 -0.156,-0.158 -0.138,-0.268 l 0.091,-0.575 c 0.022,-0.139 -0.073,-0.27 -0.212,-0.292 l -2.034,-0.322 c -0.139,-0.022 -0.27,0.073 -0.292,0.212 l -0.091,0.575 c -0.017,0.11 -0.104,0.198 -0.215,0.213 -0.358,0.047 -0.707,0.131 -1.041,0.25 -0.105,0.037 -0.222,-0.002 -0.288,-0.092 l -0.342,-0.471 c -0.083,-0.114 -0.243,-0.139 -0.357,-0.056 l -1.666,1.21 c -0.114,0.083 -0.139,0.243 -0.056,0.357 l 0.342,0.471 c 0.066,0.09 0.066,0.214 -0.002,0.302 -0.216,0.281 -0.404,0.587 -0.559,0.913 -0.048,0.101 -0.158,0.156 -0.268,0.138 l -0.575,-0.091 c -0.139,-0.022 -0.27,0.073 -0.292,0.212 l -0.322,2.034 c -0.022,0.139 0.073,0.27 0.212,0.292 l 0.575,0.091 c 0.11,0.017 0.198,0.104 0.213,0.215 0.047,0.358 0.131,0.707 0.25,1.041 0.037,0.105 -0.002,0.222 -0.092,0.288 l -0.471,0.342 c -0.114,0.083 -0.139,0.243 -0.056,0.357 l 1.21,1.666 c 0.083,0.114 0.243,0.139 0.357,0.056 l 0.471,-0.342 c 0.09,-0.066 0.214,-0.066 0.302,0.002 0.281,0.216 0.587,0.404 0.913,0.559 0.101,0.048 0.156,0.158 0.138,0.268 l -0.091,0.575 c -0.022,0.139 0.073,0.27 0.212,0.292 l 2.034,0.322 c 0.139,0.022 0.27,-0.073 0.292,-0.212 l 0.091,-0.575 c 0.017,-0.11 0.104,-0.198 0.215,-0.213 0.358,-0.047 0.707,-0.131 1.041,-0.25 0.105,-0.037 0.222,0.002 0.288,0.092 l 0.342,0.471 c 0.083,0.114 0.243,0.139 0.357,0.056 l 1.666,-1.21 c 0.114,-0.083 0.139,-0.243 0.056,-0.357 l -0.342,-0.471 c -0.066,-0.09 -0.066,-0.214 0.002,-0.302 0.216,-0.281 0.404,-0.587 0.559,-0.913 0.048,-0.101 0.158,-0.156 0.268,-0.138 l 0.575,0.091 c 0.139,0.022 0.27,-0.073 0.292,-0.212 z m -6.141,1.561 c -2.088,-0.223 -3.519,-2.194 -3.086,-4.248 0.371,-1.759 2.04,-2.972 3.827,-2.781 2.088,0.223 3.519,2.194 3.086,4.248 -0.371,1.76 -2.04,2.972 -3.827,2.781 z"
       id="path4004"
       inkscape:connector-curvature="0" />
    <path
       d="m 68.971,104.286 c 0.142,-2.809 -2.092,-5.124 -4.868,-5.128 v 9.744 c 0.083,0 0.164,0.009 0.248,0.004 2.479,-0.125 4.494,-2.141 4.62,-4.62 z"
       id="path4006"
       inkscape:connector-curvature="0" />
    <path
       d="m 64.29,112.858 c -0.064,0.003 -0.124,-0.006 -0.187,-0.005 v 3.855 h 1.856 c 0.292,0 0.529,-0.237 0.529,-0.529 v -1.208 c 0,-0.231 0.149,-0.439 0.371,-0.505 0.719,-0.213 1.405,-0.498 2.052,-0.849 0.203,-0.11 0.456,-0.069 0.619,0.095 l 0.853,0.853 c 0.207,0.207 0.542,0.207 0.749,0 l 3.02,-3.02 c 0.207,-0.207 0.207,-0.542 0,-0.749 l -0.853,-0.854 c -0.164,-0.164 -0.205,-0.416 -0.095,-0.619 0.351,-0.646 0.636,-1.333 0.849,-2.052 0.066,-0.222 0.274,-0.371 0.505,-0.371 h 1.208 c 0.292,0 0.529,-0.237 0.529,-0.53 v -4.271 c 0,-0.292 -0.237,-0.53 -0.529,-0.53 h -1.208 c -0.231,0 -0.439,-0.149 -0.505,-0.371 -0.213,-0.719 -0.498,-1.405 -0.849,-2.052 -0.11,-0.203 -0.069,-0.456 0.095,-0.619 l 0.853,-0.854 c 0.207,-0.207 0.207,-0.542 0,-0.749 l -3.02,-3.02 c -0.207,-0.207 -0.542,-0.207 -0.749,0 l -0.853,0.854 c -0.164,0.164 -0.416,0.205 -0.619,0.095 -0.647,-0.351 -1.333,-0.636 -2.052,-0.849 -0.222,-0.066 -0.371,-0.274 -0.371,-0.505 v -1.208 c 0,-0.292 -0.237,-0.529 -0.529,-0.529 h -1.856 v 3.866 c 4.789,0.144 8.599,4.182 8.352,9.061 -0.222,4.386 -3.783,7.947 -8.165,8.169 z"
       id="path4008"
       inkscape:connector-curvature="0" />
    <path
       d="m 78.36,14.145 c -1.457,0 -2.638,1.181 -2.638,2.638 0,1.457 1.181,2.638 2.638,2.638 1.103,0 2.045,-0.677 2.439,-1.638 h 5.92 c -0.493,-0.699 -1.016,-1.361 -1.556,-2 H 80.8 c -0.395,-0.96 -1.337,-1.638 -2.44,-1.638 z"
       id="path4010"
       inkscape:connector-curvature="0" />
    <path
       d="m 75.416,61.087 c -4.634,0 -8.404,-3.771 -8.404,-8.404 0,-4.633 3.77,-8.404 8.404,-8.404 4.634,0 8.404,3.771 8.404,8.404 0,4.633 -3.769,8.404 -8.404,8.404 z m 0,-14.809 c -3.531,0 -6.404,2.873 -6.404,6.404 0,3.531 2.873,6.404 6.404,6.404 3.531,0 6.404,-2.873 6.404,-6.404 0,-3.531 -2.872,-6.404 -6.404,-6.404 z"
       id="path4012"
       inkscape:connector-curvature="0" />
  </g>
  <circle
     cx="142.56595"
     cy="102.23581"
     id="circle4016"
     style="fill:#fa759e;stroke-width:1.64750123"
     r="5.8881688" />
  <path
     d="m 138.92662,144.43987 v -6.79594 c 1.73812,-0.659 2.98033,-2.32627 2.98033,-4.29504 0,-2.54209 -2.06102,-4.60476 -4.60476,-4.60476 -2.54375,0 -4.60477,2.06102 -4.60477,4.60476 0,1.95229 1.21915,3.61133 2.9342,4.28021 v 6.81077 c 0,3.10884 1.8106,5.77285 4.4186,7.07602 1.60631,-0.7216 3.16649,-1.52559 4.66902,-2.41359 h -1.13184 c -2.5701,0 -4.66078,-2.09232 -4.66078,-4.66243 z"
     id="path4018"
     inkscape:connector-curvature="0"
     style="fill:#0089ef;stroke-width:1.64750123" />
  <path
     d="m 156.20726,138.44462 c -1.63102,0 -2.95726,-1.32789 -2.95726,-2.95727 v -7.52579 c 1.72658,-0.66394 2.95726,-2.32792 2.95726,-4.28844 0,-2.5421 -2.06102,-4.60477 -4.60476,-4.60477 -2.54375,0 -4.60477,2.06102 -4.60477,4.60477 0,1.96052 1.23068,3.62285 2.95726,4.28844 v 7.52579 c 0,2.84029 1.9144,5.21599 4.51251,5.97549 0.94731,-0.96708 1.85344,-1.97371 2.71508,-3.01822 z"
     id="path4020"
     inkscape:connector-curvature="0"
     style="fill:#0089ef;stroke-width:1.64750123" />
  <path
     d="m 161.77087,86.383573 c -2.48772,-4.642658 -7.30666,-7.527433 -12.57373,-7.527433 h -9.18152 c -0.65241,-1.576659 -2.20271,-2.685427 -4.01496,-2.685427 -2.40041,0 -4.34611,1.945699 -4.34611,4.346108 0,2.400409 1.9457,4.346108 4.34611,4.346108 1.82214,0 3.37738,-1.123596 4.0232,-2.711787 h 9.17328 c 4.05121,0 7.75644,2.219184 9.66919,5.789319 l 3.72335,6.95575 c 0.28667,0.535438 0.84517,0.869881 1.4531,0.869881 h 7.32973 V 92.47109 h -6.34288 z"
     id="path4022"
     inkscape:connector-curvature="0"
     style="fill:#0089ef;stroke-width:1.64750123" />
  <path
     d="m 171.37251,76.155886 h -9.77298 c -1.13677,0 -2.06102,-0.925896 -2.06102,-2.061024 0,-2.95397 -2.40206,-5.356027 -5.35603,-5.356027 h -5.74978 c -0.64911,-1.583248 -2.20271,-2.698607 -4.01825,-2.698607 -2.40041,0 -4.34611,1.945699 -4.34611,4.346109 0,2.400409 1.9457,4.346108 4.34611,4.346108 1.81719,0 3.36914,-1.115359 4.01825,-2.698607 h 5.74978 c 1.13678,0 2.06103,0.925895 2.06103,2.061024 0,2.953969 2.40205,5.356026 5.35602,5.356026 h 9.77298 z"
     id="path4024"
     inkscape:connector-curvature="0"
     style="fill:#0089ef;stroke-width:1.64750123" />
  <path
     d="m 153.2467,50.93099 c -2.40041,0 -4.34611,1.945699 -4.34611,4.346108 0,2.40041 1.9457,4.346113 4.34611,4.346113 1.8172,0 3.36914,-1.115363 4.01826,-2.698611 h 10.2491 c -0.42835,-1.126891 -0.88141,-2.224127 -1.35589,-3.295003 h -8.89321 C 156.61584,52.047996 155.0639,50.93099 153.2467,50.93099 Z"
     id="path4026"
     inkscape:connector-curvature="0"
     style="fill:#0089ef;stroke-width:1.64750123" />
  <path
     d="m 123.96237,64.43721 h 6.71521 c 1.72988,0 3.13849,-1.406966 3.13849,-3.13849 V 40.563265 c 0,-1.729876 -1.40696,-3.138489 -3.13849,-3.138489 h -6.70368 v -0.775974 l -0.0115,28.562733 z"
     id="path4028"
     inkscape:connector-curvature="0"
     style="fill:#fa759e;stroke-width:1.64750123" />
  <path
     d="M 131.83907,60.028497 V 41.835136 c 0,-1.342713 -1.089,-2.431712 -2.43171,-2.431712 h -5.43346 l -0.01,23.056784 h 5.44334 c 1.34271,0 2.43171,-1.088998 2.43171,-2.431711 z"
     id="path4030"
     inkscape:connector-curvature="0"
     style="fill:#ffd7e5;stroke-width:1.64750123" />
  <path
     d="m 130.67923,37.424776 c 1.72988,0 3.13849,1.406966 3.13849,3.138489 V 61.29872 c 0,1.731524 -1.40697,3.13849 -3.13849,3.13849 h -6.71521 v 1.550298 h 1.08405 v 1.835317 c 0,0.42835 0.34598,0.774325 0.77433,0.774325 0.42835,0 0.77432,-0.345975 0.77432,-0.774325 v -1.835317 h 2.00831 v 2.830407 c 0,0.428351 0.34597,0.774326 0.77432,0.774326 h 1.84191 c 0.42835,0 0.77432,-0.345975 0.77432,-0.774326 0,-0.42835 -0.34597,-0.774325 -0.77432,-0.774325 h -1.06593 v -2.056082 h 0.5239 c 2.58493,0 4.68879,-2.103859 4.68879,-4.688788 v -0.871528 h 2.05608 v 1.413556 c 0,0.42835 0.34598,0.774326 0.77433,0.774326 0.42835,0 0.77432,-0.345976 0.77432,-0.774326 v -2.189529 c 0,-0.42835 -0.34597,-0.774331 -0.77432,-0.774331 h -2.83206 v -2.008303 h 1.83697 c 0.42835,0 0.77432,-0.345976 0.77432,-0.774326 0,-0.42835 -0.34597,-0.775973 -0.77432,-0.775973 h -1.83697 v -2.008304 h 1.83697 c 0.42835,0 0.77432,-0.345975 0.77432,-0.774326 0,-0.42835 -0.34597,-0.774325 -0.77432,-0.774325 h -1.83697 v -2.006657 h 1.83697 c 0.42835,0 0.77432,-0.345975 0.77432,-0.774325 0,-0.42835 -0.34597,-0.774326 -0.77432,-0.774326 h -1.83697 v -2.008304 h 1.83697 c 0.42835,0 0.77432,-0.345975 0.77432,-0.774325 0,-0.42835 -0.34597,-0.774326 -0.77432,-0.774326 h -1.83697 v -2.008304 h 2.83206 c 0.42835,0 0.77432,-0.345975 0.77432,-0.774325 v -1.845202 c 0,-0.42835 -0.34597,-0.774325 -0.77432,-0.774325 -0.42835,0 -0.77433,0.345975 -0.77433,0.774325 v 1.065934 h -2.05608 v -0.523906 c 0,-2.584929 -2.10386,-4.688788 -4.68879,-4.688788 h -0.5239 v -2.056082 h 1.06593 c 0.42835,0 0.77432,-0.345975 0.77432,-0.774325 0,-0.42835 -0.34597,-0.774326 -0.77432,-0.774326 h -1.84191 c -0.42835,0 -0.77432,0.345976 -0.77432,0.774326 v 2.832054 h -2.00831 v -1.836963 c 0,-0.428351 -0.34597,-0.774326 -0.77432,-0.774326 -0.42835,0 -0.77433,0.345975 -0.77433,0.774326 v 1.836963 h -1.07087 v 1.550299 h 6.70203 z"
     id="path4032"
     inkscape:connector-curvature="0"
     style="fill:#0089ef;stroke-width:1.64750123" />
  <ellipse
     style="fill:#324a5e;stroke-width:0.48823926"
     cx="119.98082"
     cy="30.80932"
     rx="65.850327"
     ry="23.431173"
     id="ellipse143" />
  <path
     inkscape:connector-curvature="0"
     style="fill:#2b3b4e;stroke-width:0.48823926"
     d="m 185.83235,30.809333 c 0,-12.940297 -29.48212,-23.4311729 -65.85034,-23.4311729 V 54.240507 c 36.36705,0 65.85034,-10.490876 65.85034,-23.431174 z"
     id="path145" />
  <path
     inkscape:connector-curvature="0"
     style="fill:#ffd15d;stroke-width:0.48823926"
     d="m 166.20074,46.331266 c 0.72345,-3.618325 1.44692,-7.236649 2.17095,-10.85415 -32.09812,-3.251343 -64.68182,-3.251343 -96.779927,0 0.72345,3.618325 1.44748,7.236649 2.17093,10.85415 z"
     id="path147" />
  <g
     transform="matrix(0.57876151,0,0,0.41187529,-28.182092,-16.053013)"
     id="g153">
    <path
       inkscape:connector-curvature="0"
       style="fill:#f9b54c"
       d="m 339.611,125.109 c -27.731,-3.946 -55.67,-5.92 -83.609,-5.92 v 32.273 h 79.858 c 1.25,-8.783 2.5,-17.568 3.751,-26.353 z"
       id="path149" />
    <path
       inkscape:connector-curvature="0"
       style="fill:#f9b54c"
       d="m 336.163,150.85 c 0,15.224 -35.89,27.564 -80.162,27.564 -44.272,0 -80.162,-12.341 -80.162,-27.564 z"
       id="path151" />
  </g>
  <path
     inkscape:connector-curvature="0"
     style="fill:#ffd15d;stroke-width:0.28714961"
     d="m 120.6238,208.30953 -0.003,-9.64884 -30.741917,-41.9113 -2.36126,0.64225 c 0,0 -2.58595,0.81255 -3.65906,1.29367 z"
     id="path157"
     sodipodi:nodetypes="cccccc" />
  <rect
     x="193.97873"
     y="118.24589"
     style="fill:#ffffff;stroke-width:0.41187531"
     width="25.206356"
     height="29.39554"
     id="rect163" />
  <rect
     x="219.18507"
     y="118.24589"
     style="fill:#e6f3ff;stroke-width:0.41187531"
     width="23.786209"
     height="29.39554"
     id="rect167" />
  <polygon
     transform="matrix(0.41187529,0,0,0.41187529,46.291789,13.302937)"
     style="fill:#e6f3ff"
     points="477.524,254.793 419.85,302.373 358.574,254.793 "
     id="polygon169" />
  <polygon
     transform="matrix(0.41187529,0,0,0.41187529,46.291789,13.302937)"
     style="fill:#cfdbe6"
     points="419.85,302.373 477.524,254.793 419.773,254.793 419.773,302.313 "
     id="polygon173" />
</svg>
